<mxfile host="app.diagrams.net" agent="Mozilla/5.0 (Windows NT 10.0; Win64; x64) AppleWebKit/537.36 (KHTML, like Gecko) Chrome/128.0.0.0 Safari/537.36" version="24.7.12">
  <diagram name="Página-1" id="4bl2ilmkXmHMEBFlB8eu">
    <mxGraphModel dx="1195" dy="622" grid="1" gridSize="10" guides="1" tooltips="1" connect="1" arrows="1" fold="1" page="1" pageScale="1" pageWidth="827" pageHeight="1169" math="0" shadow="0">
      <root>
        <mxCell id="0" />
        <mxCell id="1" parent="0" />
        <mxCell id="A-0itk2b6RKFP-uIM-HH-22" style="edgeStyle=none;rounded=0;orthogonalLoop=1;jettySize=auto;html=1;exitX=0.5;exitY=0.5;exitDx=0;exitDy=0;exitPerimeter=0;entryX=0;entryY=0.5;entryDx=0;entryDy=0;endArrow=none;endFill=0;" edge="1" parent="1" source="A-0itk2b6RKFP-uIM-HH-1" target="A-0itk2b6RKFP-uIM-HH-21">
          <mxGeometry relative="1" as="geometry" />
        </mxCell>
        <mxCell id="A-0itk2b6RKFP-uIM-HH-1" value="Administrador" style="shape=umlActor;verticalLabelPosition=bottom;verticalAlign=top;html=1;outlineConnect=0;" vertex="1" parent="1">
          <mxGeometry x="130" y="180" width="30" height="60" as="geometry" />
        </mxCell>
        <mxCell id="A-0itk2b6RKFP-uIM-HH-20" style="edgeStyle=none;rounded=0;orthogonalLoop=1;jettySize=auto;html=1;exitX=0.5;exitY=0.5;exitDx=0;exitDy=0;exitPerimeter=0;endArrow=none;endFill=0;entryX=0;entryY=0.5;entryDx=0;entryDy=0;" edge="1" parent="1" source="A-0itk2b6RKFP-uIM-HH-2" target="A-0itk2b6RKFP-uIM-HH-6">
          <mxGeometry relative="1" as="geometry">
            <mxPoint x="230" y="349.66666666666674" as="targetPoint" />
          </mxGeometry>
        </mxCell>
        <mxCell id="A-0itk2b6RKFP-uIM-HH-2" value="Atleta" style="shape=umlActor;verticalLabelPosition=bottom;verticalAlign=top;html=1;outlineConnect=0;" vertex="1" parent="1">
          <mxGeometry x="130" y="363" width="30" height="60" as="geometry" />
        </mxCell>
        <mxCell id="A-0itk2b6RKFP-uIM-HH-6" value="Inscrever em competição" style="ellipse;whiteSpace=wrap;html=1;" vertex="1" parent="1">
          <mxGeometry x="240" y="368" width="110" height="50" as="geometry" />
        </mxCell>
        <mxCell id="A-0itk2b6RKFP-uIM-HH-10" value="Cadastrar competição" style="ellipse;whiteSpace=wrap;html=1;" vertex="1" parent="1">
          <mxGeometry x="250" y="190" width="90" height="40" as="geometry" />
        </mxCell>
        <mxCell id="A-0itk2b6RKFP-uIM-HH-11" value="" style="endArrow=none;html=1;rounded=0;entryX=0;entryY=0.5;entryDx=0;entryDy=0;" edge="1" parent="1" target="A-0itk2b6RKFP-uIM-HH-10">
          <mxGeometry width="50" height="50" relative="1" as="geometry">
            <mxPoint x="147" y="208.58" as="sourcePoint" />
            <mxPoint x="237" y="209" as="targetPoint" />
            <Array as="points">
              <mxPoint x="177" y="208.58" />
            </Array>
          </mxGeometry>
        </mxCell>
        <mxCell id="A-0itk2b6RKFP-uIM-HH-12" value="Alocar local" style="ellipse;whiteSpace=wrap;html=1;" vertex="1" parent="1">
          <mxGeometry x="245" y="140" width="100" height="40" as="geometry" />
        </mxCell>
        <mxCell id="A-0itk2b6RKFP-uIM-HH-14" style="edgeStyle=none;rounded=0;orthogonalLoop=1;jettySize=auto;html=1;exitX=0.5;exitY=0.5;exitDx=0;exitDy=0;exitPerimeter=0;entryX=0;entryY=0.625;entryDx=0;entryDy=0;entryPerimeter=0;endArrow=none;endFill=0;" edge="1" parent="1" source="A-0itk2b6RKFP-uIM-HH-1" target="A-0itk2b6RKFP-uIM-HH-12">
          <mxGeometry relative="1" as="geometry" />
        </mxCell>
        <mxCell id="A-0itk2b6RKFP-uIM-HH-16" value="Registrar resultados" style="ellipse;whiteSpace=wrap;html=1;" vertex="1" parent="1">
          <mxGeometry x="245" y="90" width="100" height="40" as="geometry" />
        </mxCell>
        <mxCell id="A-0itk2b6RKFP-uIM-HH-18" style="edgeStyle=none;rounded=0;orthogonalLoop=1;jettySize=auto;html=1;exitX=0.5;exitY=0.5;exitDx=0;exitDy=0;exitPerimeter=0;entryX=0.025;entryY=0.658;entryDx=0;entryDy=0;entryPerimeter=0;endArrow=none;endFill=0;" edge="1" parent="1" source="A-0itk2b6RKFP-uIM-HH-1" target="A-0itk2b6RKFP-uIM-HH-16">
          <mxGeometry relative="1" as="geometry" />
        </mxCell>
        <mxCell id="A-0itk2b6RKFP-uIM-HH-21" value="Gerar relatório" style="ellipse;whiteSpace=wrap;html=1;" vertex="1" parent="1">
          <mxGeometry x="250" y="240" width="90" height="40" as="geometry" />
        </mxCell>
      </root>
    </mxGraphModel>
  </diagram>
</mxfile>
